<svg viewBox="0 0 1792 2309.2599" xmlns="http://www.w3.org/2000/svg"><path d="M336 256h1120q139 0 237.5 98.5T1792 592v1120q0 139-98.5 237.5T1456 2048H336q-139 0-237.5-98.5T0 1712V592q0-139 98.5-237.5T336 256zm-37 896q0 162 80 299.5T596.5 1669t299.5 80q192 0 340.5-98.5T1449 1383q30-81-23-81h-186q-20 0-32 4t-16 7.5-15 19.5-18 25q-47 60-116 95t-149 35q-140 0-238.5-98.5T557 1152t98.5-237.5T894 816q80 0 149 35t116 95q6 8 13 18l10.5 15 8.5 10.5 11 7.5 15.5 3.5 22.5 1.5h186q53 0 23-81-64-169-212.5-267.5T896 555q-162 0-299.5 80T379 852.5 299 1152z"/></svg>